%TF.GenerationSoftware,KiCad,Pcbnew,9.0.7*%
%TF.CreationDate,2026-02-15T21:08:03+01:00*%
%TF.ProjectId,breathwatch_pcb,62726561-7468-4776-9174-63685f706362,rev?*%
%TF.SameCoordinates,Original*%
%TF.FileFunction,Legend,Top*%
%TF.FilePolarity,Positive*%
%FSLAX46Y46*%
G04 Gerber Fmt 4.6, Leading zero omitted, Abs format (unit mm)*
G04 Created by KiCad (PCBNEW 9.0.7) date 2026-02-15 21:08:03*
%MOMM*%
%LPD*%
G01*
G04 APERTURE LIST*
%ADD10C,0.150000*%
%ADD11C,0.120000*%
G04 APERTURE END LIST*
D10*
X174357200Y-93733332D02*
X174404819Y-93590475D01*
X174404819Y-93590475D02*
X174404819Y-93352380D01*
X174404819Y-93352380D02*
X174357200Y-93257142D01*
X174357200Y-93257142D02*
X174309580Y-93209523D01*
X174309580Y-93209523D02*
X174214342Y-93161904D01*
X174214342Y-93161904D02*
X174119104Y-93161904D01*
X174119104Y-93161904D02*
X174023866Y-93209523D01*
X174023866Y-93209523D02*
X173976247Y-93257142D01*
X173976247Y-93257142D02*
X173928628Y-93352380D01*
X173928628Y-93352380D02*
X173881009Y-93542856D01*
X173881009Y-93542856D02*
X173833390Y-93638094D01*
X173833390Y-93638094D02*
X173785771Y-93685713D01*
X173785771Y-93685713D02*
X173690533Y-93733332D01*
X173690533Y-93733332D02*
X173595295Y-93733332D01*
X173595295Y-93733332D02*
X173500057Y-93685713D01*
X173500057Y-93685713D02*
X173452438Y-93638094D01*
X173452438Y-93638094D02*
X173404819Y-93542856D01*
X173404819Y-93542856D02*
X173404819Y-93304761D01*
X173404819Y-93304761D02*
X173452438Y-93161904D01*
X173404819Y-92828570D02*
X174404819Y-92590475D01*
X174404819Y-92590475D02*
X173690533Y-92399999D01*
X173690533Y-92399999D02*
X174404819Y-92209523D01*
X174404819Y-92209523D02*
X173404819Y-91971428D01*
X174404819Y-91066666D02*
X174404819Y-91638094D01*
X174404819Y-91352380D02*
X173404819Y-91352380D01*
X173404819Y-91352380D02*
X173547676Y-91447618D01*
X173547676Y-91447618D02*
X173642914Y-91542856D01*
X173642914Y-91542856D02*
X173690533Y-91638094D01*
X143233333Y-100304819D02*
X142900000Y-99828628D01*
X142661905Y-100304819D02*
X142661905Y-99304819D01*
X142661905Y-99304819D02*
X143042857Y-99304819D01*
X143042857Y-99304819D02*
X143138095Y-99352438D01*
X143138095Y-99352438D02*
X143185714Y-99400057D01*
X143185714Y-99400057D02*
X143233333Y-99495295D01*
X143233333Y-99495295D02*
X143233333Y-99638152D01*
X143233333Y-99638152D02*
X143185714Y-99733390D01*
X143185714Y-99733390D02*
X143138095Y-99781009D01*
X143138095Y-99781009D02*
X143042857Y-99828628D01*
X143042857Y-99828628D02*
X142661905Y-99828628D01*
X143804762Y-99733390D02*
X143709524Y-99685771D01*
X143709524Y-99685771D02*
X143661905Y-99638152D01*
X143661905Y-99638152D02*
X143614286Y-99542914D01*
X143614286Y-99542914D02*
X143614286Y-99495295D01*
X143614286Y-99495295D02*
X143661905Y-99400057D01*
X143661905Y-99400057D02*
X143709524Y-99352438D01*
X143709524Y-99352438D02*
X143804762Y-99304819D01*
X143804762Y-99304819D02*
X143995238Y-99304819D01*
X143995238Y-99304819D02*
X144090476Y-99352438D01*
X144090476Y-99352438D02*
X144138095Y-99400057D01*
X144138095Y-99400057D02*
X144185714Y-99495295D01*
X144185714Y-99495295D02*
X144185714Y-99542914D01*
X144185714Y-99542914D02*
X144138095Y-99638152D01*
X144138095Y-99638152D02*
X144090476Y-99685771D01*
X144090476Y-99685771D02*
X143995238Y-99733390D01*
X143995238Y-99733390D02*
X143804762Y-99733390D01*
X143804762Y-99733390D02*
X143709524Y-99781009D01*
X143709524Y-99781009D02*
X143661905Y-99828628D01*
X143661905Y-99828628D02*
X143614286Y-99923866D01*
X143614286Y-99923866D02*
X143614286Y-100114342D01*
X143614286Y-100114342D02*
X143661905Y-100209580D01*
X143661905Y-100209580D02*
X143709524Y-100257200D01*
X143709524Y-100257200D02*
X143804762Y-100304819D01*
X143804762Y-100304819D02*
X143995238Y-100304819D01*
X143995238Y-100304819D02*
X144090476Y-100257200D01*
X144090476Y-100257200D02*
X144138095Y-100209580D01*
X144138095Y-100209580D02*
X144185714Y-100114342D01*
X144185714Y-100114342D02*
X144185714Y-99923866D01*
X144185714Y-99923866D02*
X144138095Y-99828628D01*
X144138095Y-99828628D02*
X144090476Y-99781009D01*
X144090476Y-99781009D02*
X143995238Y-99733390D01*
X140904819Y-96166666D02*
X140428628Y-96499999D01*
X140904819Y-96738094D02*
X139904819Y-96738094D01*
X139904819Y-96738094D02*
X139904819Y-96357142D01*
X139904819Y-96357142D02*
X139952438Y-96261904D01*
X139952438Y-96261904D02*
X140000057Y-96214285D01*
X140000057Y-96214285D02*
X140095295Y-96166666D01*
X140095295Y-96166666D02*
X140238152Y-96166666D01*
X140238152Y-96166666D02*
X140333390Y-96214285D01*
X140333390Y-96214285D02*
X140381009Y-96261904D01*
X140381009Y-96261904D02*
X140428628Y-96357142D01*
X140428628Y-96357142D02*
X140428628Y-96738094D01*
X139904819Y-95833332D02*
X139904819Y-95166666D01*
X139904819Y-95166666D02*
X140904819Y-95595237D01*
X159304819Y-115766666D02*
X158828628Y-116099999D01*
X159304819Y-116338094D02*
X158304819Y-116338094D01*
X158304819Y-116338094D02*
X158304819Y-115957142D01*
X158304819Y-115957142D02*
X158352438Y-115861904D01*
X158352438Y-115861904D02*
X158400057Y-115814285D01*
X158400057Y-115814285D02*
X158495295Y-115766666D01*
X158495295Y-115766666D02*
X158638152Y-115766666D01*
X158638152Y-115766666D02*
X158733390Y-115814285D01*
X158733390Y-115814285D02*
X158781009Y-115861904D01*
X158781009Y-115861904D02*
X158828628Y-115957142D01*
X158828628Y-115957142D02*
X158828628Y-116338094D01*
X158304819Y-114909523D02*
X158304819Y-115099999D01*
X158304819Y-115099999D02*
X158352438Y-115195237D01*
X158352438Y-115195237D02*
X158400057Y-115242856D01*
X158400057Y-115242856D02*
X158542914Y-115338094D01*
X158542914Y-115338094D02*
X158733390Y-115385713D01*
X158733390Y-115385713D02*
X159114342Y-115385713D01*
X159114342Y-115385713D02*
X159209580Y-115338094D01*
X159209580Y-115338094D02*
X159257200Y-115290475D01*
X159257200Y-115290475D02*
X159304819Y-115195237D01*
X159304819Y-115195237D02*
X159304819Y-115004761D01*
X159304819Y-115004761D02*
X159257200Y-114909523D01*
X159257200Y-114909523D02*
X159209580Y-114861904D01*
X159209580Y-114861904D02*
X159114342Y-114814285D01*
X159114342Y-114814285D02*
X158876247Y-114814285D01*
X158876247Y-114814285D02*
X158781009Y-114861904D01*
X158781009Y-114861904D02*
X158733390Y-114909523D01*
X158733390Y-114909523D02*
X158685771Y-115004761D01*
X158685771Y-115004761D02*
X158685771Y-115195237D01*
X158685771Y-115195237D02*
X158733390Y-115290475D01*
X158733390Y-115290475D02*
X158781009Y-115338094D01*
X158781009Y-115338094D02*
X158876247Y-115385713D01*
X154004819Y-96666666D02*
X153528628Y-96999999D01*
X154004819Y-97238094D02*
X153004819Y-97238094D01*
X153004819Y-97238094D02*
X153004819Y-96857142D01*
X153004819Y-96857142D02*
X153052438Y-96761904D01*
X153052438Y-96761904D02*
X153100057Y-96714285D01*
X153100057Y-96714285D02*
X153195295Y-96666666D01*
X153195295Y-96666666D02*
X153338152Y-96666666D01*
X153338152Y-96666666D02*
X153433390Y-96714285D01*
X153433390Y-96714285D02*
X153481009Y-96761904D01*
X153481009Y-96761904D02*
X153528628Y-96857142D01*
X153528628Y-96857142D02*
X153528628Y-97238094D01*
X153004819Y-95761904D02*
X153004819Y-96238094D01*
X153004819Y-96238094D02*
X153481009Y-96285713D01*
X153481009Y-96285713D02*
X153433390Y-96238094D01*
X153433390Y-96238094D02*
X153385771Y-96142856D01*
X153385771Y-96142856D02*
X153385771Y-95904761D01*
X153385771Y-95904761D02*
X153433390Y-95809523D01*
X153433390Y-95809523D02*
X153481009Y-95761904D01*
X153481009Y-95761904D02*
X153576247Y-95714285D01*
X153576247Y-95714285D02*
X153814342Y-95714285D01*
X153814342Y-95714285D02*
X153909580Y-95761904D01*
X153909580Y-95761904D02*
X153957200Y-95809523D01*
X153957200Y-95809523D02*
X154004819Y-95904761D01*
X154004819Y-95904761D02*
X154004819Y-96142856D01*
X154004819Y-96142856D02*
X153957200Y-96238094D01*
X153957200Y-96238094D02*
X153909580Y-96285713D01*
X144933333Y-114204819D02*
X144600000Y-113728628D01*
X144361905Y-114204819D02*
X144361905Y-113204819D01*
X144361905Y-113204819D02*
X144742857Y-113204819D01*
X144742857Y-113204819D02*
X144838095Y-113252438D01*
X144838095Y-113252438D02*
X144885714Y-113300057D01*
X144885714Y-113300057D02*
X144933333Y-113395295D01*
X144933333Y-113395295D02*
X144933333Y-113538152D01*
X144933333Y-113538152D02*
X144885714Y-113633390D01*
X144885714Y-113633390D02*
X144838095Y-113681009D01*
X144838095Y-113681009D02*
X144742857Y-113728628D01*
X144742857Y-113728628D02*
X144361905Y-113728628D01*
X145790476Y-113538152D02*
X145790476Y-114204819D01*
X145552381Y-113157200D02*
X145314286Y-113871485D01*
X145314286Y-113871485D02*
X145933333Y-113871485D01*
X182204819Y-110766666D02*
X181728628Y-111099999D01*
X182204819Y-111338094D02*
X181204819Y-111338094D01*
X181204819Y-111338094D02*
X181204819Y-110957142D01*
X181204819Y-110957142D02*
X181252438Y-110861904D01*
X181252438Y-110861904D02*
X181300057Y-110814285D01*
X181300057Y-110814285D02*
X181395295Y-110766666D01*
X181395295Y-110766666D02*
X181538152Y-110766666D01*
X181538152Y-110766666D02*
X181633390Y-110814285D01*
X181633390Y-110814285D02*
X181681009Y-110861904D01*
X181681009Y-110861904D02*
X181728628Y-110957142D01*
X181728628Y-110957142D02*
X181728628Y-111338094D01*
X181204819Y-110433332D02*
X181204819Y-109814285D01*
X181204819Y-109814285D02*
X181585771Y-110147618D01*
X181585771Y-110147618D02*
X181585771Y-110004761D01*
X181585771Y-110004761D02*
X181633390Y-109909523D01*
X181633390Y-109909523D02*
X181681009Y-109861904D01*
X181681009Y-109861904D02*
X181776247Y-109814285D01*
X181776247Y-109814285D02*
X182014342Y-109814285D01*
X182014342Y-109814285D02*
X182109580Y-109861904D01*
X182109580Y-109861904D02*
X182157200Y-109909523D01*
X182157200Y-109909523D02*
X182204819Y-110004761D01*
X182204819Y-110004761D02*
X182204819Y-110290475D01*
X182204819Y-110290475D02*
X182157200Y-110385713D01*
X182157200Y-110385713D02*
X182109580Y-110433332D01*
X130904819Y-95066666D02*
X130428628Y-95399999D01*
X130904819Y-95638094D02*
X129904819Y-95638094D01*
X129904819Y-95638094D02*
X129904819Y-95257142D01*
X129904819Y-95257142D02*
X129952438Y-95161904D01*
X129952438Y-95161904D02*
X130000057Y-95114285D01*
X130000057Y-95114285D02*
X130095295Y-95066666D01*
X130095295Y-95066666D02*
X130238152Y-95066666D01*
X130238152Y-95066666D02*
X130333390Y-95114285D01*
X130333390Y-95114285D02*
X130381009Y-95161904D01*
X130381009Y-95161904D02*
X130428628Y-95257142D01*
X130428628Y-95257142D02*
X130428628Y-95638094D01*
X130000057Y-94685713D02*
X129952438Y-94638094D01*
X129952438Y-94638094D02*
X129904819Y-94542856D01*
X129904819Y-94542856D02*
X129904819Y-94304761D01*
X129904819Y-94304761D02*
X129952438Y-94209523D01*
X129952438Y-94209523D02*
X130000057Y-94161904D01*
X130000057Y-94161904D02*
X130095295Y-94114285D01*
X130095295Y-94114285D02*
X130190533Y-94114285D01*
X130190533Y-94114285D02*
X130333390Y-94161904D01*
X130333390Y-94161904D02*
X130904819Y-94733332D01*
X130904819Y-94733332D02*
X130904819Y-94114285D01*
X138220833Y-91804819D02*
X137887500Y-91328628D01*
X137649405Y-91804819D02*
X137649405Y-90804819D01*
X137649405Y-90804819D02*
X138030357Y-90804819D01*
X138030357Y-90804819D02*
X138125595Y-90852438D01*
X138125595Y-90852438D02*
X138173214Y-90900057D01*
X138173214Y-90900057D02*
X138220833Y-90995295D01*
X138220833Y-90995295D02*
X138220833Y-91138152D01*
X138220833Y-91138152D02*
X138173214Y-91233390D01*
X138173214Y-91233390D02*
X138125595Y-91281009D01*
X138125595Y-91281009D02*
X138030357Y-91328628D01*
X138030357Y-91328628D02*
X137649405Y-91328628D01*
X139173214Y-91804819D02*
X138601786Y-91804819D01*
X138887500Y-91804819D02*
X138887500Y-90804819D01*
X138887500Y-90804819D02*
X138792262Y-90947676D01*
X138792262Y-90947676D02*
X138697024Y-91042914D01*
X138697024Y-91042914D02*
X138601786Y-91090533D01*
X148704761Y-94050057D02*
X148609523Y-94002438D01*
X148609523Y-94002438D02*
X148514285Y-93907200D01*
X148514285Y-93907200D02*
X148371428Y-93764342D01*
X148371428Y-93764342D02*
X148276190Y-93716723D01*
X148276190Y-93716723D02*
X148180952Y-93716723D01*
X148228571Y-93954819D02*
X148133333Y-93907200D01*
X148133333Y-93907200D02*
X148038095Y-93811961D01*
X148038095Y-93811961D02*
X147990476Y-93621485D01*
X147990476Y-93621485D02*
X147990476Y-93288152D01*
X147990476Y-93288152D02*
X148038095Y-93097676D01*
X148038095Y-93097676D02*
X148133333Y-93002438D01*
X148133333Y-93002438D02*
X148228571Y-92954819D01*
X148228571Y-92954819D02*
X148419047Y-92954819D01*
X148419047Y-92954819D02*
X148514285Y-93002438D01*
X148514285Y-93002438D02*
X148609523Y-93097676D01*
X148609523Y-93097676D02*
X148657142Y-93288152D01*
X148657142Y-93288152D02*
X148657142Y-93621485D01*
X148657142Y-93621485D02*
X148609523Y-93811961D01*
X148609523Y-93811961D02*
X148514285Y-93907200D01*
X148514285Y-93907200D02*
X148419047Y-93954819D01*
X148419047Y-93954819D02*
X148228571Y-93954819D01*
X149609523Y-93954819D02*
X149038095Y-93954819D01*
X149323809Y-93954819D02*
X149323809Y-92954819D01*
X149323809Y-92954819D02*
X149228571Y-93097676D01*
X149228571Y-93097676D02*
X149133333Y-93192914D01*
X149133333Y-93192914D02*
X149038095Y-93240533D01*
X151764819Y-90883333D02*
X152479104Y-90883333D01*
X152479104Y-90883333D02*
X152621961Y-90930952D01*
X152621961Y-90930952D02*
X152717200Y-91026190D01*
X152717200Y-91026190D02*
X152764819Y-91169047D01*
X152764819Y-91169047D02*
X152764819Y-91264285D01*
X152098152Y-89978571D02*
X152764819Y-89978571D01*
X151717200Y-90216666D02*
X152431485Y-90454761D01*
X152431485Y-90454761D02*
X152431485Y-89835714D01*
X188316666Y-101724819D02*
X188316666Y-102439104D01*
X188316666Y-102439104D02*
X188269047Y-102581961D01*
X188269047Y-102581961D02*
X188173809Y-102677200D01*
X188173809Y-102677200D02*
X188030952Y-102724819D01*
X188030952Y-102724819D02*
X187935714Y-102724819D01*
X188697619Y-101724819D02*
X189316666Y-101724819D01*
X189316666Y-101724819D02*
X188983333Y-102105771D01*
X188983333Y-102105771D02*
X189126190Y-102105771D01*
X189126190Y-102105771D02*
X189221428Y-102153390D01*
X189221428Y-102153390D02*
X189269047Y-102201009D01*
X189269047Y-102201009D02*
X189316666Y-102296247D01*
X189316666Y-102296247D02*
X189316666Y-102534342D01*
X189316666Y-102534342D02*
X189269047Y-102629580D01*
X189269047Y-102629580D02*
X189221428Y-102677200D01*
X189221428Y-102677200D02*
X189126190Y-102724819D01*
X189126190Y-102724819D02*
X188840476Y-102724819D01*
X188840476Y-102724819D02*
X188745238Y-102677200D01*
X188745238Y-102677200D02*
X188697619Y-102629580D01*
X126484819Y-121283333D02*
X127199104Y-121283333D01*
X127199104Y-121283333D02*
X127341961Y-121330952D01*
X127341961Y-121330952D02*
X127437200Y-121426190D01*
X127437200Y-121426190D02*
X127484819Y-121569047D01*
X127484819Y-121569047D02*
X127484819Y-121664285D01*
X126580057Y-120854761D02*
X126532438Y-120807142D01*
X126532438Y-120807142D02*
X126484819Y-120711904D01*
X126484819Y-120711904D02*
X126484819Y-120473809D01*
X126484819Y-120473809D02*
X126532438Y-120378571D01*
X126532438Y-120378571D02*
X126580057Y-120330952D01*
X126580057Y-120330952D02*
X126675295Y-120283333D01*
X126675295Y-120283333D02*
X126770533Y-120283333D01*
X126770533Y-120283333D02*
X126913390Y-120330952D01*
X126913390Y-120330952D02*
X127484819Y-120902380D01*
X127484819Y-120902380D02*
X127484819Y-120283333D01*
X126484819Y-103283333D02*
X127199104Y-103283333D01*
X127199104Y-103283333D02*
X127341961Y-103330952D01*
X127341961Y-103330952D02*
X127437200Y-103426190D01*
X127437200Y-103426190D02*
X127484819Y-103569047D01*
X127484819Y-103569047D02*
X127484819Y-103664285D01*
X127484819Y-102283333D02*
X127484819Y-102854761D01*
X127484819Y-102569047D02*
X126484819Y-102569047D01*
X126484819Y-102569047D02*
X126627676Y-102664285D01*
X126627676Y-102664285D02*
X126722914Y-102759523D01*
X126722914Y-102759523D02*
X126770533Y-102854761D01*
X145561905Y-90904819D02*
X145561905Y-89904819D01*
X145561905Y-89904819D02*
X145800000Y-89904819D01*
X145800000Y-89904819D02*
X145942857Y-89952438D01*
X145942857Y-89952438D02*
X146038095Y-90047676D01*
X146038095Y-90047676D02*
X146085714Y-90142914D01*
X146085714Y-90142914D02*
X146133333Y-90333390D01*
X146133333Y-90333390D02*
X146133333Y-90476247D01*
X146133333Y-90476247D02*
X146085714Y-90666723D01*
X146085714Y-90666723D02*
X146038095Y-90761961D01*
X146038095Y-90761961D02*
X145942857Y-90857200D01*
X145942857Y-90857200D02*
X145800000Y-90904819D01*
X145800000Y-90904819D02*
X145561905Y-90904819D01*
X147085714Y-90904819D02*
X146514286Y-90904819D01*
X146800000Y-90904819D02*
X146800000Y-89904819D01*
X146800000Y-89904819D02*
X146704762Y-90047676D01*
X146704762Y-90047676D02*
X146609524Y-90142914D01*
X146609524Y-90142914D02*
X146514286Y-90190533D01*
D11*
%TO.C,SW1*%
X174770000Y-95630000D02*
X174770000Y-89170000D01*
X174800000Y-95630000D02*
X174770000Y-95630000D01*
X176700000Y-95630000D02*
X179300000Y-95630000D01*
X181230000Y-95630000D02*
X181200000Y-95630000D01*
X181230000Y-95630000D02*
X181230000Y-89170000D01*
X174770000Y-89170000D02*
X174800000Y-89170000D01*
X176700000Y-89170000D02*
X179300000Y-89170000D01*
X181230000Y-89170000D02*
X181200000Y-89170000D01*
%TO.C,R8*%
X143627064Y-98935000D02*
X143172936Y-98935000D01*
X143627064Y-97465000D02*
X143172936Y-97465000D01*
%TO.C,R7*%
X139535000Y-95772936D02*
X139535000Y-96227064D01*
X138065000Y-95772936D02*
X138065000Y-96227064D01*
%TO.C,R6*%
X159765000Y-115827064D02*
X159765000Y-115372936D01*
X161235000Y-115827064D02*
X161235000Y-115372936D01*
%TO.C,R5*%
X154465000Y-96727064D02*
X154465000Y-96272936D01*
X155935000Y-96727064D02*
X155935000Y-96272936D01*
%TO.C,R4*%
X144872936Y-114665000D02*
X145327064Y-114665000D01*
X144872936Y-116135000D02*
X145327064Y-116135000D01*
%TO.C,R3*%
X180835000Y-110372936D02*
X180835000Y-110827064D01*
X179365000Y-110372936D02*
X179365000Y-110827064D01*
%TO.C,R2*%
X131365000Y-95127064D02*
X131365000Y-94672936D01*
X132835000Y-95127064D02*
X132835000Y-94672936D01*
%TO.C,R1*%
X138160436Y-92265000D02*
X138614564Y-92265000D01*
X138160436Y-93735000D02*
X138614564Y-93735000D01*
%TO.C,Q1*%
X148040000Y-94340000D02*
X149560000Y-94340000D01*
X148040000Y-94390000D02*
X148040000Y-94340000D01*
X148040000Y-96290000D02*
X148040000Y-95510000D01*
X148040000Y-97460000D02*
X148040000Y-97410000D01*
X149560000Y-94340000D02*
X149560000Y-95340000D01*
X149560000Y-96460000D02*
X149560000Y-97460000D01*
X149560000Y-97460000D02*
X148040000Y-97460000D01*
X147740000Y-95850000D02*
X147260000Y-95850000D01*
X147500000Y-95520000D01*
X147740000Y-95850000D01*
G36*
X147740000Y-95850000D02*
G01*
X147260000Y-95850000D01*
X147500000Y-95520000D01*
X147740000Y-95850000D01*
G37*
%TO.C,J4*%
X153750000Y-91880000D02*
X156960000Y-91880000D01*
X153750000Y-91880000D02*
X153750000Y-89220000D01*
X158480000Y-91880000D02*
X162040000Y-91880000D01*
X163560000Y-91880000D02*
X167120000Y-91880000D01*
X168640000Y-91880000D02*
X169310000Y-91880000D01*
X169310000Y-91880000D02*
X169310000Y-89220000D01*
X153750000Y-89220000D02*
X154420000Y-89220000D01*
X154420000Y-89220000D02*
X154420000Y-88010000D01*
X155940000Y-89220000D02*
X159500000Y-89220000D01*
X161020000Y-89220000D02*
X164580000Y-89220000D01*
X166100000Y-89220000D02*
X169310000Y-89220000D01*
%TO.C,J3*%
X187320000Y-103710000D02*
X187320000Y-106920000D01*
X187320000Y-103710000D02*
X189980000Y-103710000D01*
X187320000Y-108440000D02*
X187320000Y-112000000D01*
X187320000Y-113520000D02*
X187320000Y-117080000D01*
X187320000Y-118600000D02*
X187320000Y-122160000D01*
X187320000Y-123680000D02*
X187320000Y-124350000D01*
X187320000Y-124350000D02*
X189980000Y-124350000D01*
X189980000Y-103710000D02*
X189980000Y-104380000D01*
X189980000Y-104380000D02*
X191190000Y-104380000D01*
X189980000Y-105900000D02*
X189980000Y-109460000D01*
X189980000Y-110980000D02*
X189980000Y-114540000D01*
X189980000Y-116060000D02*
X189980000Y-119620000D01*
X189980000Y-121140000D02*
X189980000Y-124350000D01*
%TO.C,J2*%
X128470000Y-122280000D02*
X131680000Y-122280000D01*
X128470000Y-122280000D02*
X128470000Y-119620000D01*
X133200000Y-122280000D02*
X136760000Y-122280000D01*
X138280000Y-122280000D02*
X141840000Y-122280000D01*
X143360000Y-122280000D02*
X146920000Y-122280000D01*
X148440000Y-122280000D02*
X152000000Y-122280000D01*
X153520000Y-122280000D02*
X157080000Y-122280000D01*
X158600000Y-122280000D02*
X162160000Y-122280000D01*
X163680000Y-122280000D02*
X167240000Y-122280000D01*
X168760000Y-122280000D02*
X172320000Y-122280000D01*
X173840000Y-122280000D02*
X177400000Y-122280000D01*
X178920000Y-122280000D02*
X179590000Y-122280000D01*
X179590000Y-122280000D02*
X179590000Y-119620000D01*
X128470000Y-119620000D02*
X129140000Y-119620000D01*
X129140000Y-119620000D02*
X129140000Y-118410000D01*
X130660000Y-119620000D02*
X134220000Y-119620000D01*
X135740000Y-119620000D02*
X139300000Y-119620000D01*
X140820000Y-119620000D02*
X144380000Y-119620000D01*
X145900000Y-119620000D02*
X149460000Y-119620000D01*
X150980000Y-119620000D02*
X154540000Y-119620000D01*
X156060000Y-119620000D02*
X159620000Y-119620000D01*
X161140000Y-119620000D02*
X164700000Y-119620000D01*
X166220000Y-119620000D02*
X169780000Y-119620000D01*
X171300000Y-119620000D02*
X174860000Y-119620000D01*
X176380000Y-119620000D02*
X179590000Y-119620000D01*
%TO.C,J1*%
X128470000Y-104280000D02*
X131680000Y-104280000D01*
X128470000Y-104280000D02*
X128470000Y-101620000D01*
X133200000Y-104280000D02*
X136760000Y-104280000D01*
X138280000Y-104280000D02*
X141840000Y-104280000D01*
X143360000Y-104280000D02*
X146920000Y-104280000D01*
X148440000Y-104280000D02*
X152000000Y-104280000D01*
X153520000Y-104280000D02*
X157080000Y-104280000D01*
X158600000Y-104280000D02*
X162160000Y-104280000D01*
X163680000Y-104280000D02*
X167240000Y-104280000D01*
X168760000Y-104280000D02*
X172320000Y-104280000D01*
X173840000Y-104280000D02*
X177400000Y-104280000D01*
X178920000Y-104280000D02*
X179590000Y-104280000D01*
X179590000Y-104280000D02*
X179590000Y-101620000D01*
X128470000Y-101620000D02*
X129140000Y-101620000D01*
X129140000Y-101620000D02*
X129140000Y-100410000D01*
X130660000Y-101620000D02*
X134220000Y-101620000D01*
X135740000Y-101620000D02*
X139300000Y-101620000D01*
X140820000Y-101620000D02*
X144380000Y-101620000D01*
X145900000Y-101620000D02*
X149460000Y-101620000D01*
X150980000Y-101620000D02*
X154540000Y-101620000D01*
X156060000Y-101620000D02*
X159620000Y-101620000D01*
X161140000Y-101620000D02*
X164700000Y-101620000D01*
X166220000Y-101620000D02*
X169780000Y-101620000D01*
X171300000Y-101620000D02*
X174860000Y-101620000D01*
X176380000Y-101620000D02*
X179590000Y-101620000D01*
%TO.C,D1*%
X148160000Y-89760000D02*
X148160000Y-87840000D01*
X148160000Y-87840000D02*
X145300000Y-87840000D01*
X145300000Y-89760000D02*
X148160000Y-89760000D01*
%TD*%
M02*
