%TF.GenerationSoftware,KiCad,Pcbnew,9.0.7*%
%TF.CreationDate,2026-02-15T21:08:03+01:00*%
%TF.ProjectId,breathwatch_pcb,62726561-7468-4776-9174-63685f706362,rev?*%
%TF.SameCoordinates,Original*%
%TF.FileFunction,Copper,L1,Top*%
%TF.FilePolarity,Positive*%
%FSLAX46Y46*%
G04 Gerber Fmt 4.6, Leading zero omitted, Abs format (unit mm)*
G04 Created by KiCad (PCBNEW 9.0.7) date 2026-02-15 21:08:03*
%MOMM*%
%LPD*%
G01*
G04 APERTURE LIST*
G04 Aperture macros list*
%AMRoundRect*
0 Rectangle with rounded corners*
0 $1 Rounding radius*
0 $2 $3 $4 $5 $6 $7 $8 $9 X,Y pos of 4 corners*
0 Add a 4 corners polygon primitive as box body*
4,1,4,$2,$3,$4,$5,$6,$7,$8,$9,$2,$3,0*
0 Add four circle primitives for the rounded corners*
1,1,$1+$1,$2,$3*
1,1,$1+$1,$4,$5*
1,1,$1+$1,$6,$7*
1,1,$1+$1,$8,$9*
0 Add four rect primitives between the rounded corners*
20,1,$1+$1,$2,$3,$4,$5,0*
20,1,$1+$1,$4,$5,$6,$7,0*
20,1,$1+$1,$6,$7,$8,$9,0*
20,1,$1+$1,$8,$9,$2,$3,0*%
G04 Aperture macros list end*
%ADD10C,0.150000*%
%TA.AperFunction,NonConductor*%
%ADD11C,0.150000*%
%TD*%
%TA.AperFunction,SMDPad,CuDef*%
%ADD12RoundRect,0.250000X0.400000X-0.525000X0.400000X0.525000X-0.400000X0.525000X-0.400000X-0.525000X0*%
%TD*%
%TA.AperFunction,SMDPad,CuDef*%
%ADD13RoundRect,0.250000X0.262500X0.450000X-0.262500X0.450000X-0.262500X-0.450000X0.262500X-0.450000X0*%
%TD*%
%TA.AperFunction,SMDPad,CuDef*%
%ADD14RoundRect,0.250000X-0.450000X0.262500X-0.450000X-0.262500X0.450000X-0.262500X0.450000X0.262500X0*%
%TD*%
%TA.AperFunction,SMDPad,CuDef*%
%ADD15RoundRect,0.250000X0.450000X-0.262500X0.450000X0.262500X-0.450000X0.262500X-0.450000X-0.262500X0*%
%TD*%
%TA.AperFunction,SMDPad,CuDef*%
%ADD16RoundRect,0.250000X-0.262500X-0.450000X0.262500X-0.450000X0.262500X0.450000X-0.262500X0.450000X0*%
%TD*%
%TA.AperFunction,SMDPad,CuDef*%
%ADD17RoundRect,0.150000X-0.587500X-0.150000X0.587500X-0.150000X0.587500X0.150000X-0.587500X0.150000X0*%
%TD*%
%TA.AperFunction,SMDPad,CuDef*%
%ADD18R,1.000000X1.900000*%
%TD*%
%TA.AperFunction,SMDPad,CuDef*%
%ADD19R,1.900000X1.000000*%
%TD*%
%TA.AperFunction,SMDPad,CuDef*%
%ADD20RoundRect,0.250000X0.325000X0.450000X-0.325000X0.450000X-0.325000X-0.450000X0.325000X-0.450000X0*%
%TD*%
%TA.AperFunction,ViaPad*%
%ADD21C,0.600000*%
%TD*%
%TA.AperFunction,Conductor*%
%ADD22C,0.200000*%
%TD*%
G04 APERTURE END LIST*
D10*
D11*
X188599819Y-100958458D02*
X188695057Y-100672744D01*
X188695057Y-100672744D02*
X188790295Y-100577506D01*
X188790295Y-100577506D02*
X188980771Y-100482268D01*
X188980771Y-100482268D02*
X189266485Y-100482268D01*
X189266485Y-100482268D02*
X189456961Y-100577506D01*
X189456961Y-100577506D02*
X189552200Y-100672744D01*
X189552200Y-100672744D02*
X189647438Y-100863220D01*
X189647438Y-100863220D02*
X189647438Y-101625125D01*
X189647438Y-101625125D02*
X187647438Y-101625125D01*
X187647438Y-101625125D02*
X187647438Y-100958458D01*
X187647438Y-100958458D02*
X187742676Y-100767982D01*
X187742676Y-100767982D02*
X187837914Y-100672744D01*
X187837914Y-100672744D02*
X188028390Y-100577506D01*
X188028390Y-100577506D02*
X188218866Y-100577506D01*
X188218866Y-100577506D02*
X188409342Y-100672744D01*
X188409342Y-100672744D02*
X188504580Y-100767982D01*
X188504580Y-100767982D02*
X188599819Y-100958458D01*
X188599819Y-100958458D02*
X188599819Y-101625125D01*
X189647438Y-99625125D02*
X188314104Y-99625125D01*
X188695057Y-99625125D02*
X188504580Y-99529887D01*
X188504580Y-99529887D02*
X188409342Y-99434649D01*
X188409342Y-99434649D02*
X188314104Y-99244173D01*
X188314104Y-99244173D02*
X188314104Y-99053696D01*
X189552200Y-97625125D02*
X189647438Y-97815601D01*
X189647438Y-97815601D02*
X189647438Y-98196554D01*
X189647438Y-98196554D02*
X189552200Y-98387030D01*
X189552200Y-98387030D02*
X189361723Y-98482268D01*
X189361723Y-98482268D02*
X188599819Y-98482268D01*
X188599819Y-98482268D02*
X188409342Y-98387030D01*
X188409342Y-98387030D02*
X188314104Y-98196554D01*
X188314104Y-98196554D02*
X188314104Y-97815601D01*
X188314104Y-97815601D02*
X188409342Y-97625125D01*
X188409342Y-97625125D02*
X188599819Y-97529887D01*
X188599819Y-97529887D02*
X188790295Y-97529887D01*
X188790295Y-97529887D02*
X188980771Y-98482268D01*
X189647438Y-95815601D02*
X188599819Y-95815601D01*
X188599819Y-95815601D02*
X188409342Y-95910839D01*
X188409342Y-95910839D02*
X188314104Y-96101315D01*
X188314104Y-96101315D02*
X188314104Y-96482268D01*
X188314104Y-96482268D02*
X188409342Y-96672744D01*
X189552200Y-95815601D02*
X189647438Y-96006077D01*
X189647438Y-96006077D02*
X189647438Y-96482268D01*
X189647438Y-96482268D02*
X189552200Y-96672744D01*
X189552200Y-96672744D02*
X189361723Y-96767982D01*
X189361723Y-96767982D02*
X189171247Y-96767982D01*
X189171247Y-96767982D02*
X188980771Y-96672744D01*
X188980771Y-96672744D02*
X188885533Y-96482268D01*
X188885533Y-96482268D02*
X188885533Y-96006077D01*
X188885533Y-96006077D02*
X188790295Y-95815601D01*
X188314104Y-95148934D02*
X188314104Y-94387030D01*
X187647438Y-94863220D02*
X189361723Y-94863220D01*
X189361723Y-94863220D02*
X189552200Y-94767982D01*
X189552200Y-94767982D02*
X189647438Y-94577506D01*
X189647438Y-94577506D02*
X189647438Y-94387030D01*
X189647438Y-93720363D02*
X187647438Y-93720363D01*
X189647438Y-92863220D02*
X188599819Y-92863220D01*
X188599819Y-92863220D02*
X188409342Y-92958458D01*
X188409342Y-92958458D02*
X188314104Y-93148934D01*
X188314104Y-93148934D02*
X188314104Y-93434649D01*
X188314104Y-93434649D02*
X188409342Y-93625125D01*
X188409342Y-93625125D02*
X188504580Y-93720363D01*
X187647438Y-92101315D02*
X189647438Y-91625125D01*
X189647438Y-91625125D02*
X188218866Y-91244172D01*
X188218866Y-91244172D02*
X189647438Y-90863220D01*
X189647438Y-90863220D02*
X187647438Y-90387030D01*
X189647438Y-88767982D02*
X188599819Y-88767982D01*
X188599819Y-88767982D02*
X188409342Y-88863220D01*
X188409342Y-88863220D02*
X188314104Y-89053696D01*
X188314104Y-89053696D02*
X188314104Y-89434649D01*
X188314104Y-89434649D02*
X188409342Y-89625125D01*
X189552200Y-88767982D02*
X189647438Y-88958458D01*
X189647438Y-88958458D02*
X189647438Y-89434649D01*
X189647438Y-89434649D02*
X189552200Y-89625125D01*
X189552200Y-89625125D02*
X189361723Y-89720363D01*
X189361723Y-89720363D02*
X189171247Y-89720363D01*
X189171247Y-89720363D02*
X188980771Y-89625125D01*
X188980771Y-89625125D02*
X188885533Y-89434649D01*
X188885533Y-89434649D02*
X188885533Y-88958458D01*
X188885533Y-88958458D02*
X188790295Y-88767982D01*
X188314104Y-88101315D02*
X188314104Y-87339411D01*
X187647438Y-87815601D02*
X189361723Y-87815601D01*
X189361723Y-87815601D02*
X189552200Y-87720363D01*
X189552200Y-87720363D02*
X189647438Y-87529887D01*
X189647438Y-87529887D02*
X189647438Y-87339411D01*
X189552200Y-85815601D02*
X189647438Y-86006077D01*
X189647438Y-86006077D02*
X189647438Y-86387030D01*
X189647438Y-86387030D02*
X189552200Y-86577506D01*
X189552200Y-86577506D02*
X189456961Y-86672744D01*
X189456961Y-86672744D02*
X189266485Y-86767982D01*
X189266485Y-86767982D02*
X188695057Y-86767982D01*
X188695057Y-86767982D02*
X188504580Y-86672744D01*
X188504580Y-86672744D02*
X188409342Y-86577506D01*
X188409342Y-86577506D02*
X188314104Y-86387030D01*
X188314104Y-86387030D02*
X188314104Y-86006077D01*
X188314104Y-86006077D02*
X188409342Y-85815601D01*
X189647438Y-84958458D02*
X187647438Y-84958458D01*
X189647438Y-84101315D02*
X188599819Y-84101315D01*
X188599819Y-84101315D02*
X188409342Y-84196553D01*
X188409342Y-84196553D02*
X188314104Y-84387029D01*
X188314104Y-84387029D02*
X188314104Y-84672744D01*
X188314104Y-84672744D02*
X188409342Y-84863220D01*
X188409342Y-84863220D02*
X188504580Y-84958458D01*
D12*
%TO.P,SW1,1,1*%
%TO.N,Net-(J1-Pin_12)*%
X175750000Y-96380000D03*
X175750000Y-88420000D03*
%TO.P,SW1,2,2*%
%TO.N,GND*%
X180250000Y-96380000D03*
X180250000Y-88420000D03*
%TD*%
D13*
%TO.P,R8,1*%
%TO.N,Net-(Q1-G)*%
X144312500Y-98200000D03*
%TO.P,R8,2*%
%TO.N,Net-(J1-Pin_6)*%
X142487500Y-98200000D03*
%TD*%
D14*
%TO.P,R7,1*%
%TO.N,Net-(J1-Pin_1)*%
X138800000Y-95087500D03*
%TO.P,R7,2*%
%TO.N,Net-(Q1-G)*%
X138800000Y-96912500D03*
%TD*%
D15*
%TO.P,R6,1*%
%TO.N,Net-(J2-Pin_13)*%
X160500000Y-116512500D03*
%TO.P,R6,2*%
%TO.N,Net-(J4-Pin_2)*%
X160500000Y-114687500D03*
%TD*%
%TO.P,R5,1*%
%TO.N,Net-(J1-Pin_10)*%
X155200000Y-97412500D03*
%TO.P,R5,2*%
%TO.N,Net-(D1-A)*%
X155200000Y-95587500D03*
%TD*%
D16*
%TO.P,R4,1*%
%TO.N,Net-(J2-Pin_1)*%
X144187500Y-115400000D03*
%TO.P,R4,2*%
%TO.N,Net-(J2-Pin_6)*%
X146012500Y-115400000D03*
%TD*%
D14*
%TO.P,R3,1*%
%TO.N,Net-(J2-Pin_1)*%
X180100000Y-109687500D03*
%TO.P,R3,2*%
%TO.N,Net-(J2-Pin_7)*%
X180100000Y-111512500D03*
%TD*%
D15*
%TO.P,R2,1*%
%TO.N,Net-(J2-Pin_15)*%
X132100000Y-95812500D03*
%TO.P,R2,2*%
%TO.N,GND*%
X132100000Y-93987500D03*
%TD*%
D16*
%TO.P,R1,1*%
%TO.N,Net-(J2-Pin_15)*%
X137475000Y-93000000D03*
%TO.P,R1,2*%
%TO.N,Net-(J4-Pin_3)*%
X139300000Y-93000000D03*
%TD*%
D17*
%TO.P,Q1,1,D*%
%TO.N,Net-(J4-Pin_5)*%
X147862500Y-94950000D03*
%TO.P,Q1,2,G*%
%TO.N,Net-(Q1-G)*%
X147862500Y-96850000D03*
%TO.P,Q1,3,S*%
%TO.N,Net-(J1-Pin_1)*%
X149737500Y-95900000D03*
%TD*%
D18*
%TO.P,J4,1,Pin_1*%
%TO.N,unconnected-(J4-Pin_1-Pad1)*%
X155180000Y-88900000D03*
%TO.P,J4,2,Pin_2*%
%TO.N,Net-(J4-Pin_2)*%
X157720000Y-92200000D03*
%TO.P,J4,3,Pin_3*%
%TO.N,Net-(J4-Pin_3)*%
X160260000Y-88900000D03*
%TO.P,J4,4,Pin_4*%
%TO.N,GND*%
X162800000Y-92200000D03*
%TO.P,J4,5,Pin_5*%
%TO.N,Net-(J4-Pin_5)*%
X165340000Y-88900000D03*
%TO.P,J4,6,Pin_6*%
%TO.N,unconnected-(J4-Pin_6-Pad6)*%
X167880000Y-92200000D03*
%TD*%
D19*
%TO.P,J3,1,Pin_1*%
%TO.N,unconnected-(J3-Pin_1-Pad1)*%
X190300000Y-105140000D03*
%TO.P,J3,2,Pin_2*%
%TO.N,Net-(J2-Pin_1)*%
X187000000Y-107680000D03*
%TO.P,J3,3,Pin_3*%
%TO.N,GND*%
X190300000Y-110220000D03*
%TO.P,J3,4,Pin_4*%
%TO.N,Net-(J2-Pin_7)*%
X187000000Y-112760000D03*
%TO.P,J3,5,Pin_5*%
%TO.N,Net-(J2-Pin_6)*%
X190300000Y-115300000D03*
%TO.P,J3,6,Pin_6*%
%TO.N,unconnected-(J3-Pin_6-Pad6)*%
X187000000Y-117840000D03*
%TO.P,J3,7,Pin_7*%
%TO.N,unconnected-(J3-Pin_7-Pad7)*%
X190300000Y-120380000D03*
%TO.P,J3,8,Pin_8*%
%TO.N,unconnected-(J3-Pin_8-Pad8)*%
X187000000Y-122920000D03*
%TD*%
D18*
%TO.P,J2,1,Pin_1*%
%TO.N,Net-(J2-Pin_1)*%
X129900000Y-119300000D03*
%TO.P,J2,2,Pin_2*%
%TO.N,GND*%
X132440000Y-122600000D03*
%TO.P,J2,3,Pin_3*%
%TO.N,unconnected-(J2-Pin_3-Pad3)*%
X134980000Y-119300000D03*
%TO.P,J2,4,Pin_4*%
%TO.N,unconnected-(J2-Pin_4-Pad4)*%
X137520000Y-122600000D03*
%TO.P,J2,5,Pin_5*%
%TO.N,unconnected-(J2-Pin_5-Pad5)*%
X140060000Y-119300000D03*
%TO.P,J2,6,Pin_6*%
%TO.N,Net-(J2-Pin_6)*%
X142600000Y-122600000D03*
%TO.P,J2,7,Pin_7*%
%TO.N,Net-(J2-Pin_7)*%
X145140000Y-119300000D03*
%TO.P,J2,8,Pin_8*%
%TO.N,unconnected-(J2-Pin_8-Pad8)*%
X147680000Y-122600000D03*
%TO.P,J2,9,Pin_9*%
%TO.N,unconnected-(J2-Pin_9-Pad9)*%
X150220000Y-119300000D03*
%TO.P,J2,10,Pin_10*%
%TO.N,unconnected-(J2-Pin_10-Pad10)*%
X152760000Y-122600000D03*
%TO.P,J2,11,Pin_11*%
%TO.N,unconnected-(J2-Pin_11-Pad11)*%
X155300000Y-119300000D03*
%TO.P,J2,12,Pin_12*%
%TO.N,unconnected-(J2-Pin_12-Pad12)*%
X157840000Y-122600000D03*
%TO.P,J2,13,Pin_13*%
%TO.N,Net-(J2-Pin_13)*%
X160380000Y-119300000D03*
%TO.P,J2,14,Pin_14*%
%TO.N,unconnected-(J2-Pin_14-Pad14)*%
X162920000Y-122600000D03*
%TO.P,J2,15,Pin_15*%
%TO.N,Net-(J2-Pin_15)*%
X165460000Y-119300000D03*
%TO.P,J2,16,Pin_16*%
%TO.N,unconnected-(J2-Pin_16-Pad16)*%
X168000000Y-122600000D03*
%TO.P,J2,17,Pin_17*%
%TO.N,unconnected-(J2-Pin_17-Pad17)*%
X170540000Y-119300000D03*
%TO.P,J2,18,Pin_18*%
%TO.N,unconnected-(J2-Pin_18-Pad18)*%
X173080000Y-122600000D03*
%TO.P,J2,19,Pin_19*%
%TO.N,unconnected-(J2-Pin_19-Pad19)*%
X175620000Y-119300000D03*
%TO.P,J2,20,Pin_20*%
%TO.N,unconnected-(J2-Pin_20-Pad20)*%
X178160000Y-122600000D03*
%TD*%
%TO.P,J1,1,Pin_1*%
%TO.N,Net-(J1-Pin_1)*%
X129900000Y-101300000D03*
%TO.P,J1,2,Pin_2*%
%TO.N,unconnected-(J1-Pin_2-Pad2)*%
X132440000Y-104600000D03*
%TO.P,J1,3,Pin_3*%
%TO.N,unconnected-(J1-Pin_3-Pad3)*%
X134980000Y-101300000D03*
%TO.P,J1,4,Pin_4*%
%TO.N,unconnected-(J1-Pin_4-Pad4)*%
X137520000Y-104600000D03*
%TO.P,J1,5,Pin_5*%
%TO.N,unconnected-(J1-Pin_5-Pad5)*%
X140060000Y-101300000D03*
%TO.P,J1,6,Pin_6*%
%TO.N,Net-(J1-Pin_6)*%
X142600000Y-104600000D03*
%TO.P,J1,7,Pin_7*%
%TO.N,unconnected-(J1-Pin_7-Pad7)*%
X145140000Y-101300000D03*
%TO.P,J1,8,Pin_8*%
%TO.N,unconnected-(J1-Pin_8-Pad8)*%
X147680000Y-104600000D03*
%TO.P,J1,9,Pin_9*%
%TO.N,unconnected-(J1-Pin_9-Pad9)*%
X150220000Y-101300000D03*
%TO.P,J1,10,Pin_10*%
%TO.N,Net-(J1-Pin_10)*%
X152760000Y-104600000D03*
%TO.P,J1,11,Pin_11*%
%TO.N,unconnected-(J1-Pin_11-Pad11)*%
X155300000Y-101300000D03*
%TO.P,J1,12,Pin_12*%
%TO.N,Net-(J1-Pin_12)*%
X157840000Y-104600000D03*
%TO.P,J1,13,Pin_13*%
%TO.N,unconnected-(J1-Pin_13-Pad13)*%
X160380000Y-101300000D03*
%TO.P,J1,14,Pin_14*%
%TO.N,unconnected-(J1-Pin_14-Pad14)*%
X162920000Y-104600000D03*
%TO.P,J1,15,Pin_15*%
%TO.N,unconnected-(J1-Pin_15-Pad15)*%
X165460000Y-101300000D03*
%TO.P,J1,16,Pin_16*%
%TO.N,unconnected-(J1-Pin_16-Pad16)*%
X168000000Y-104600000D03*
%TO.P,J1,17,Pin_17*%
%TO.N,unconnected-(J1-Pin_17-Pad17)*%
X170540000Y-101300000D03*
%TO.P,J1,18,Pin_18*%
%TO.N,unconnected-(J1-Pin_18-Pad18)*%
X173080000Y-104600000D03*
%TO.P,J1,19,Pin_19*%
%TO.N,unconnected-(J1-Pin_19-Pad19)*%
X175620000Y-101300000D03*
%TO.P,J1,20,Pin_20*%
%TO.N,unconnected-(J1-Pin_20-Pad20)*%
X178160000Y-104600000D03*
%TD*%
D20*
%TO.P,D1,1,K*%
%TO.N,GND*%
X147325000Y-88800000D03*
%TO.P,D1,2,A*%
%TO.N,Net-(D1-A)*%
X145275000Y-88800000D03*
%TD*%
D21*
%TO.N,Net-(J4-Pin_2)*%
X158950000Y-112887000D03*
X155898000Y-93237500D03*
%TO.N,Net-(J2-Pin_15)*%
X158551500Y-120568000D03*
X137475000Y-94774900D03*
%TD*%
D22*
%TO.N,Net-(Q1-G)*%
X147862500Y-96850000D02*
X145662500Y-96850000D01*
X145662500Y-96850000D02*
X145621200Y-96850000D01*
X145621200Y-96850000D02*
X144312500Y-96850000D01*
X144312500Y-96912500D02*
X138800000Y-96912500D01*
X144312500Y-96850000D02*
X144312500Y-96912500D01*
X144312500Y-96912500D02*
X144312500Y-98200000D01*
%TO.N,Net-(J4-Pin_3)*%
X160260000Y-88900000D02*
X160260000Y-90151700D01*
X142148300Y-90151700D02*
X160260000Y-90151700D01*
X139300000Y-93000000D02*
X142148300Y-90151700D01*
%TO.N,Net-(J4-Pin_2)*%
X158950000Y-113137500D02*
X158950000Y-112887000D01*
X160500000Y-114687500D02*
X158950000Y-113137500D01*
X156112200Y-93451700D02*
X157720000Y-93451700D01*
X155898000Y-93237500D02*
X156112200Y-93451700D01*
X157720000Y-92200000D02*
X157720000Y-93451700D01*
X155898000Y-93237500D02*
X156112200Y-93451700D01*
X156112200Y-93451700D02*
X155898000Y-93237500D01*
X158950000Y-112887000D02*
X158950000Y-113137500D01*
X158950000Y-113137500D02*
X158950000Y-112887000D01*
%TO.N,Net-(J4-Pin_5)*%
X165340000Y-88900000D02*
X165340000Y-90151700D01*
X162185600Y-90151700D02*
X165340000Y-90151700D01*
X155894900Y-96442400D02*
X162185600Y-90151700D01*
X151721600Y-96442400D02*
X155894900Y-96442400D01*
X150229200Y-94950000D02*
X151721600Y-96442400D01*
X147862500Y-94950000D02*
X150229200Y-94950000D01*
%TO.N,Net-(J2-Pin_13)*%
X160380000Y-116632500D02*
X160500000Y-116512500D01*
X160380000Y-119300000D02*
X160380000Y-116632500D01*
%TO.N,Net-(J2-Pin_6)*%
X165356100Y-121348300D02*
X142600000Y-121348300D01*
X171404400Y-115300000D02*
X165356100Y-121348300D01*
X190300000Y-115300000D02*
X171404400Y-115300000D01*
X142600000Y-122600000D02*
X142600000Y-121348300D01*
X142600000Y-119083100D02*
X142600000Y-121348300D01*
X146147800Y-115535300D02*
X142600000Y-119083100D01*
X146012500Y-115400000D02*
X146147800Y-115535300D01*
%TO.N,Net-(J2-Pin_1)*%
X182107500Y-107680000D02*
X180100000Y-109687500D01*
X187000000Y-107680000D02*
X182107500Y-107680000D01*
X129900000Y-119300000D02*
X129900000Y-118048300D01*
X144187500Y-115116000D02*
X144187500Y-115400000D01*
X149616000Y-109687500D02*
X144187500Y-115116000D01*
X180100000Y-109687500D02*
X149616000Y-109687500D01*
X141515300Y-115400000D02*
X139033300Y-117882000D01*
X144187500Y-115400000D02*
X141515300Y-115400000D01*
X139033300Y-117882000D02*
X138868500Y-118046800D01*
X139033300Y-117882000D02*
X138868500Y-118046800D01*
X129901500Y-118046800D02*
X129900000Y-118048300D01*
X138868500Y-118046800D02*
X129901500Y-118046800D01*
%TO.N,Net-(J2-Pin_15)*%
X132100000Y-95812500D02*
X134912500Y-93000000D01*
X134912500Y-93000000D02*
X134953800Y-93000000D01*
X134953800Y-93000000D02*
X136628600Y-93000000D01*
X136628600Y-93000000D02*
X137475000Y-93000000D01*
X158567800Y-120551700D02*
X158551500Y-120568000D01*
X165460000Y-120551700D02*
X158567800Y-120551700D01*
X165460000Y-119300000D02*
X165460000Y-120551700D01*
X137589500Y-94889400D02*
X137475000Y-94774900D01*
X137475000Y-94774900D02*
X137475000Y-93000000D01*
X137589500Y-94889400D02*
X137475000Y-94774900D01*
%TO.N,Net-(J2-Pin_7)*%
X187000000Y-112760000D02*
X185748300Y-112760000D01*
X184500800Y-111512500D02*
X180100000Y-111512500D01*
X185748300Y-112760000D02*
X184500800Y-111512500D01*
X151675800Y-111512500D02*
X145140000Y-118048300D01*
X180100000Y-111512500D02*
X151675800Y-111512500D01*
X145140000Y-119300000D02*
X145140000Y-118048300D01*
%TO.N,Net-(J1-Pin_1)*%
X133839200Y-100048300D02*
X138800000Y-95087500D01*
X129900000Y-100048300D02*
X133839200Y-100048300D01*
X129900000Y-101300000D02*
X129900000Y-100048300D01*
X139612500Y-95900000D02*
X149737500Y-95900000D01*
X138800000Y-95087500D02*
X139612500Y-95900000D01*
%TO.N,Net-(J1-Pin_12)*%
X160208400Y-103348300D02*
X157840000Y-103348300D01*
X167176700Y-96380000D02*
X160208400Y-103348300D01*
X175750000Y-96380000D02*
X167176700Y-96380000D01*
X157840000Y-104600000D02*
X157840000Y-103348300D01*
X175750000Y-96380000D02*
X175750000Y-88420000D01*
%TO.N,Net-(J1-Pin_10)*%
X152760000Y-99852500D02*
X155200000Y-97412500D01*
X152760000Y-104600000D02*
X152760000Y-99852500D01*
%TO.N,Net-(J1-Pin_6)*%
X142600000Y-98312500D02*
X142487500Y-98200000D01*
X142600000Y-104600000D02*
X142600000Y-98312500D01*
%TO.N,GND*%
X162800000Y-92200000D02*
X162800000Y-90948300D01*
X180250000Y-88420000D02*
X180250000Y-96380000D01*
X179132100Y-87302100D02*
X180250000Y-88420000D01*
X168814600Y-87302100D02*
X179132100Y-87302100D01*
X167228500Y-88888200D02*
X168814600Y-87302100D01*
X147469000Y-87648300D02*
X147325000Y-87792300D01*
X165988500Y-87648300D02*
X147469000Y-87648300D01*
X167228500Y-88888200D02*
X165988500Y-87648300D01*
X138295200Y-87792300D02*
X132100000Y-93987500D01*
X147325000Y-87792300D02*
X138295200Y-87792300D01*
X147325000Y-88800000D02*
X147325000Y-87792300D01*
X190300000Y-110220000D02*
X189674200Y-110220000D01*
X189048300Y-105178300D02*
X180250000Y-96380000D01*
X189048300Y-110100800D02*
X189048300Y-105178300D01*
X189555000Y-110100800D02*
X189048300Y-110100800D01*
X189674200Y-110220000D02*
X189555000Y-110100800D01*
X136135100Y-121348300D02*
X132440000Y-121348300D01*
X139258300Y-118225100D02*
X136135100Y-121348300D01*
X139258300Y-118225000D02*
X139258300Y-118225100D01*
X139435000Y-118048300D02*
X139258300Y-118225000D01*
X143045200Y-118048300D02*
X139435000Y-118048300D01*
X145100000Y-115993500D02*
X143045200Y-118048300D01*
X145100000Y-114803800D02*
X145100000Y-115993500D01*
X149303800Y-110600000D02*
X145100000Y-114803800D01*
X188549100Y-110600000D02*
X149303800Y-110600000D01*
X189048300Y-110100800D02*
X188549100Y-110600000D01*
X132440000Y-122600000D02*
X132440000Y-121348300D01*
X165168400Y-90948300D02*
X167228500Y-88888200D01*
X162800000Y-90948300D02*
X165168400Y-90948300D01*
%TO.N,Net-(D1-A)*%
X153623600Y-94011100D02*
X155200000Y-95587500D01*
X138774100Y-94011100D02*
X153623600Y-94011100D01*
X138484700Y-93721700D02*
X138774100Y-94011100D01*
X138484700Y-92280800D02*
X138484700Y-93721700D01*
X141965500Y-88800000D02*
X138484700Y-92280800D01*
X145275000Y-88800000D02*
X141965500Y-88800000D01*
%TD*%
M02*
